<svg xmlns="http://www.w3.org/2000/svg" width="20.093" height="22.047" viewBox="0 0 20.093 22.047">
    <path id="Calendar"
        d="M15.068,22.046A8.263,8.263,0,0,1,14.192,22H5.9a8.415,8.415,0,0,1-3.53-.381,1.041,1.041,0,0,1-.124-.051A3.886,3.886,0,0,1,.478,19.8a1.04,1.04,0,0,1-.051-.124,8.437,8.437,0,0,1-.381-3.53V7.854a8.437,8.437,0,0,1,.381-3.53A1.04,1.04,0,0,1,.478,4.2,3.886,3.886,0,0,1,2.247,2.431a1.04,1.04,0,0,1,.124-.051,7.825,7.825,0,0,1,2.675-.427V1a1,1,0,0,1,2,0V2h6V1a1,1,0,0,1,2,0v.953a8.433,8.433,0,0,1,2.676.427,1.041,1.041,0,0,1,.124.051A3.884,3.884,0,0,1,19.614,4.2a1.151,1.151,0,0,1,.052.126,8.433,8.433,0,0,1,.38,3.53v8.291a8.433,8.433,0,0,1-.38,3.53,1.151,1.151,0,0,1-.052.126,3.884,3.884,0,0,1-1.768,1.767,1.041,1.041,0,0,1-.124.051,8.445,8.445,0,0,1-2.654.427M5.847,20h8.4a.857.857,0,0,1,.113.007,6.417,6.417,0,0,0,2.664-.264,1.873,1.873,0,0,0,.767-.768,6.437,6.437,0,0,0,.263-2.662.883.883,0,0,1-.007-.114V10h-16v6.2a.883.883,0,0,1-.007.114A6.43,6.43,0,0,0,2.3,18.976a1.865,1.865,0,0,0,.767.767,6.449,6.449,0,0,0,2.663.264A.883.883,0,0,1,5.847,20M2.046,8h16V7.8a.857.857,0,0,1,.007-.113,6.44,6.44,0,0,0-.263-2.663,1.873,1.873,0,0,0-.767-.768,6.436,6.436,0,0,0-1.953-.3h-.024V5a1,1,0,0,1-2,0V4h-6V5a1,1,0,0,1-2,0V3.952a7.348,7.348,0,0,0-1.976.3,1.865,1.865,0,0,0-.767.767,6.433,6.433,0,0,0-.264,2.664.857.857,0,0,1,.007.113Zm7,10a1,1,0,0,1-.707-.293l-2-2a1,1,0,0,1,1.414-1.414l1.293,1.293,3.793-3.793a1,1,0,0,1,1.414,1.414l-4.5,4.5A1,1,0,0,1,9.046,18"
        transform="translate(0)" fill="#9a9a9a" />
</svg>
