<svg xmlns="http://www.w3.org/2000/svg" width="80.608" height="83.645" viewBox="0 0 80.608 83.645">
    <g id="Group_2070" data-name="Group 2070" transform="translate(-170 -320.68)">
        <path id="Path_15978" data-name="Path 15978"
            d="M382.541,32.019c5.1-2.9,11.482-7.046,16.836-15S400.628,0,400.628,0c-.018,5-2.776,13.593-10.8,19.072-6.889,4.705-11.188.675-7.9-3.719s6.644-5.116,6.644-5.116-7.095-.4-11.648,4.3c-6.658,6.875-8.5,15.445-11.475,16.436-2.407.8-4.644-1.478-2.4-4.73s6.575-6.091,5.541-10.314c-2.9,6.625-7.914,5.422-14.731,12.307-10.2,10.3-8.136,30.393,8.515,30.115,18.071-.3,21.49-13.625,23.5-19.98s4.281-6.531,4.281-6.531-3.518-.028-5.909,4.712-5.053,4.661-5.877,3.421-.934-5.048,4.165-7.953"
            transform="translate(-151.522 320.68)" fill="#ffe428" />
        <path id="Path_15979" data-name="Path 15979"
            d="M367.235,77.483c-.462.028-.938.046-1.416.054-6.632.11-9.547-3.433-10.824-6.425-2.5-5.852-.651-14.034,4.3-19.032a25.7,25.7,0,0,1,3.878-3.233,5.46,5.46,0,0,0,.364,4.412,5.063,5.063,0,0,0,4.778,2.519,5.859,5.859,0,0,0,1.493-.291c2.451-.816,3.8-3.348,5.658-6.852a46.065,46.065,0,0,1,6.187-9.491,5.694,5.694,0,0,0,.561,3.708,6.109,6.109,0,0,0,6,2.967,13.6,13.6,0,0,0,6.649-2.569,27.5,27.5,0,0,0,3.59-2.925,45.542,45.542,0,0,1-13.778,11.237c-3.95,2.25-5.315,4.979-5.764,6.872a6.453,6.453,0,0,0,.675,4.973,4.409,4.409,0,0,0,4,1.929,5.146,5.146,0,0,0,1.235-.233,23.132,23.132,0,0,1-3.4,5.84c-3.306,4.023-7.945,6.162-14.183,6.538"
            transform="translate(-155.009 298.759)" fill="#ff0" />
        <circle id="Ellipse_20" data-name="Ellipse 20" cx="28" cy="28" r="28"
            transform="translate(170 348.325)" fill="#00923a" />
        <path id="Path_751" data-name="Path 751"
            d="M392,61.078c-6.79,3.3-9.482,11.341-9.719,15.6-.413,7.418-8.181,14.737-13.765,9.5-3.7-3.476-.881-11.154,5.767-13.794,8.125-3.228,7.555-9.306,17.718-11.306"
            transform="translate(-162.091 284.489)" fill="#00923a" />
        <path id="Intersection_1" data-name="Intersection 1"
            d="M0,39.02c-.072-.285,6.193-16.467,9.094-23.934.625-.133,1.254-.242,1.885-.334.467-.059.926-.119,1.311-.193a3.306,3.306,0,0,0,.945-.324,11.133,11.133,0,0,0,1.879-1.586l.994-.977c.344-.336.7-.674,1.066-.992a22.488,22.488,0,0,1,2.322-1.8,19.515,19.515,0,0,1,5.313-2.451c.9-.291,1.77-.549,2.572-.887a9.765,9.765,0,0,0,1.162-.58c.189-.113.373-.23.549-.357l.566-.393a11.084,11.084,0,0,0,2.02-1.783A4.239,4.239,0,0,0,32.8,0a4.245,4.245,0,0,1-.621,2.777,10.2,10.2,0,0,1-1.8,2.281l-.512.5c-.182.166-.371.328-.568.492a11.427,11.427,0,0,1-1.242.838,23.954,23.954,0,0,1-2.6,1.242c-.852.369-1.648.756-2.418,1.182a19.392,19.392,0,0,0-2.2,1.459,23.228,23.228,0,0,0-2.018,1.723c-.324.3-.65.615-.961.932s-.646.678-.986,1.008-.689.674-1.066,1.014l-.027.021c.063,0,.127.01.191.016l-.82.523L6.061,34.123,32.9,43.871h8.9l.3-.418c0,.031,0,.063,0,.094a11.787,11.787,0,0,1,2.289-1.986,17.891,17.891,0,0,0,2.02-1.615,15.78,15.78,0,0,0,1.723-1.9,13.736,13.736,0,0,0,1.379-2.154,16.851,16.851,0,0,0,.986-2.445c.586-1.738,1.08-3.52,1.607-5.324A22.967,22.967,0,0,1,54.229,22.8a8.938,8.938,0,0,1,4.291-3.662,10.212,10.212,0,0,0-2.129,1.77,8.855,8.855,0,0,0-1.453,2.271,22.123,22.123,0,0,0-1.412,5.273c-.33,1.826-.646,3.689-1.1,5.541a19.05,19.05,0,0,1-.871,2.824,14.3,14.3,0,0,1-1.434,2.67,15.821,15.821,0,0,1-4.3,4.182,9.21,9.21,0,0,0-3.25,3.645,8.722,8.722,0,0,0-.473,1.137c-.135.393-.223.766-.365,1.27-.074.277-.156.551-.24.822l-7.326.475S.1,39.4,0,39.02Z"
            transform="translate(183.214 333.667)" fill="#00923a" stroke="rgba(0,0,0,0)"
            stroke-width="1" />
        <circle id="Ellipse_21" data-name="Ellipse 21" cx="23" cy="23" r="23"
            transform="translate(175 353.324)" fill="#ffe428" />
        <path id="Path_1680" data-name="Path 1680" d="M491.223,1214l-16.653,16.653-7.57-7.57"
            transform="translate(-281.111 -844.502)" fill="none" stroke="#00923a"
            stroke-linecap="round" stroke-linejoin="round" stroke-width="4" />
    </g>
</svg>
