<svg id="Events" xmlns="http://www.w3.org/2000/svg" xmlns:xlink="http://www.w3.org/1999/xlink" width="22" height="22" viewBox="0 0 22 22">
  <defs>
    <clipPath id="clip-path">
      <rect id="Rectangle_5370" data-name="Rectangle 5370" width="22" height="22" fill="none"/>
    </clipPath>
  </defs>
  <g id="Group_1854" data-name="Group 1854" clip-path="url(#clip-path)">
    <path id="Path_15764" data-name="Path 15764" d="M11,22A11.016,11.016,0,0,1,.79,15.09a.871.871,0,0,1-.061-.153,11,11,0,0,1,17.9-11.854.9.9,0,0,1,.136.132A10.966,10.966,0,0,1,22,11c0,.193,0,.376-.014.568a.989.989,0,0,1-1.03.931,13.375,13.375,0,0,1-4.851-1.08A4.64,4.64,0,0,1,13.783,7.54c.009-1.064.477-2.52,2.472-3.843A9,9,0,0,0,8.6,2.326l2.438,3.468A1.5,1.5,0,0,1,11.1,7.413L9.269,10.537l.019,3.146a1.329,1.329,0,0,1-.023.281,1.5,1.5,0,0,1-1.756,1.208l-3.58-.667-.959.556A9.011,9.011,0,0,0,11,20c.148,0,.3,0,.441-.008a1,1,0,1,1,.118,2C11.373,22,11.188,22,11,22M3.759,14.473l.033.006Zm.352-.074L4.1,14.4l.01-.006M7.875,13.2h0M6.694,3.1A9,9,0,0,0,2.262,13.16l.836-.486a1.447,1.447,0,0,1,1.089-.154l3.106.577-.024-2.691a1.53,1.53,0,0,1,.2-.761L9.21,6.681Zm11.1,2c-1.02.583-2,1.415-2.008,2.457A2.717,2.717,0,0,0,16.948,9.6a11.231,11.231,0,0,0,3.034.814A8.971,8.971,0,0,0,17.791,5.1M9.4,6.944l0,0Z" fill="#9a9a9a"/>
    <path id="Path_15765" data-name="Path 15765" d="M19.081,21.15a1,1,0,0,1-.707-.293l-.589-.589a4.007,4.007,0,1,1,1.543-1.285l.46.46a1,1,0,0,1-.707,1.707m-3-6.5a2,2,0,1,0,2,2,2,2,0,0,0-2-2" fill="#9a9a9a"/>
  </g>
</svg>
