<svg xmlns="http://www.w3.org/2000/svg" width="22.027" height="22.011" viewBox="0 0 22.027 22.011">
    <path id="Explore"
        d="M6.452,22.011H6.445a1.45,1.45,0,0,1-1.432-1.432,4.564,4.564,0,0,1,4.554-4.568h.446V14.94a7.019,7.019,0,0,1-5.706-4.919A8.781,8.781,0,0,1,3.063,9.9,4.065,4.065,0,0,1,.148,7.054a8.748,8.748,0,0,1-.133-2.1l0-.392a3.286,3.286,0,0,1,.12-1.207A2,2,0,0,1,1.267,2.16a3.384,3.384,0,0,1,1.345-.144l1.4,0a3.49,3.49,0,0,1,.09-.576.788.788,0,0,1,.031-.105A1.985,1.985,0,0,1,5.338.129.894.894,0,0,1,5.439.1a3.424,3.424,0,0,1,1.1-.086l9.038,0A3.17,3.17,0,0,1,16.587.1a.894.894,0,0,1,.1.029A1.982,1.982,0,0,1,17.9,1.335a.915.915,0,0,1,.03.1,3.5,3.5,0,0,1,.089.574h1.5a3.168,3.168,0,0,1,1.155.119,2.007,2.007,0,0,1,1.2,1.134,3.389,3.389,0,0,1,.145,1.346l.005.4A8.519,8.519,0,0,1,21.9,6.963a4.067,4.067,0,0,1-2.842,2.913,9.125,9.125,0,0,1-1.337.144,7.02,7.02,0,0,1-5.706,4.92v1.071h.439a4.562,4.562,0,0,1,4.561,4.562,1.452,1.452,0,0,1-1.433,1.438Zm.621-2h7.88a2.56,2.56,0,0,0-2.492-2H9.569a2.558,2.558,0,0,0-2.5,2M6.01,3.088l0,4.923a5,5,0,0,0,10,0V2.451A1.9,1.9,0,0,0,16,2.021a1.311,1.311,0,0,0-.348-.013l-9.2,0a1.835,1.835,0,0,0-.431.01,1.444,1.444,0,0,0-.012.348v.564c0,.025,0,.052,0,.078s0,.052,0,.077m-3.984.937a1.237,1.237,0,0,0-.018.384c0,.034.005.068.005.1v.5A7.038,7.038,0,0,0,2.1,6.621,2.015,2.015,0,0,0,3.5,7.947c.16.026.333.045.517.059V4.011h-1.5a1.7,1.7,0,0,0-.487.014M18.01,4.009l0,3.994q.306-.024.608-.077a2.011,2.011,0,0,0,1.326-1.4,6.867,6.867,0,0,0,.068-1.459l0-.559A1.741,1.741,0,0,0,20,4.024a1.361,1.361,0,0,0-.387-.018Z"
        transform="translate(0 0)" fill="#9a9a9a" />
</svg>
