<svg xmlns="http://www.w3.org/2000/svg" width="22" height="21.031" viewBox="0 0 22 21.031">
    <path id="Home"
        d="M16.347,21.031a5.732,5.732,0,0,1-.6-.031H6.254a5.949,5.949,0,0,1-2.481-.274,1.008,1.008,0,0,1-.144-.062,3.024,3.024,0,0,1-1.3-1.314,1.025,1.025,0,0,1-.059-.147A6.074,6.074,0,0,1,2,16.7V8.842l-.395.3A1,1,0,1,1,.4,7.55l8.08-6.141a4.694,4.694,0,0,1,.739-.56L9.435.681A3.025,3.025,0,0,1,10.373.1.9.9,0,0,1,10.507.06a2.076,2.076,0,0,1,.985,0A.921.921,0,0,1,11.627.1a3.27,3.27,0,0,1,1.014.642l.12.091a5.624,5.624,0,0,1,.836.634L19.6,6.03l.034.027L21.6,7.55A1,1,0,0,1,20.4,9.142l-.4-.3V16.7a6.082,6.082,0,0,1-.267,2.5,1.025,1.025,0,0,1-.059.147,3.024,3.024,0,0,1-1.3,1.314,1.008,1.008,0,0,1-.144.062,5.941,5.941,0,0,1-1.88.305M15,19h.8a.857.857,0,0,1,.113.007,4,4,0,0,0,1.594-.15,1.037,1.037,0,0,0,.35-.353,4.12,4.12,0,0,0,.149-1.638A1,1,0,0,1,18,16.757V7.322l-6.316-4.8a3.4,3.4,0,0,0-.485-.246.958.958,0,0,0-.4,0,3.633,3.633,0,0,0-.509.259L4,7.322v9.435a1,1,0,0,1-.006.11A4.086,4.086,0,0,0,4.143,18.5a1.037,1.037,0,0,0,.35.353,3.943,3.943,0,0,0,1.594.15A.857.857,0,0,1,6.2,19H7V12.547a3.5,3.5,0,0,1,.159-1.426A.9.9,0,0,1,7.208,11a1.984,1.984,0,0,1,.885-.9.925.925,0,0,1,.134-.056,3.43,3.43,0,0,1,1.425-.164h2.7a3.45,3.45,0,0,1,1.425.164.925.925,0,0,1,.134.056,1.984,1.984,0,0,1,.885.9.9.9,0,0,1,.049.121A3.5,3.5,0,0,1,15,12.547ZM9,19h4V12.5a1.032,1.032,0,0,1,.006-.111,1.482,1.482,0,0,0-.026-.493,1.5,1.5,0,0,0-.464-.024.9.9,0,0,1-.116.007H9.6a.9.9,0,0,1-.116-.007,1.507,1.507,0,0,0-.464.024,1.482,1.482,0,0,0-.026.493A1.032,1.032,0,0,1,9,12.5ZM3,16.757H3Z"
        transform="translate(0 0)" fill="#9a9a9a" />
</svg>
