<svg xmlns="http://www.w3.org/2000/svg" xmlns:xlink="http://www.w3.org/1999/xlink" width="21" height="21.995" viewBox="0 0 21 21.995">
  <defs>
    <clipPath id="clip-path">
      <rect id="Rectangle_5365" data-name="Rectangle 5365" width="18.921" height="21.995" transform="translate(0 0)" fill="none"/>
    </clipPath>
  </defs>
  <g id="Group_3117" data-name="Group 3117" transform="translate(-41 -1637)">
    <g id="Group_1847" data-name="Group 1847" transform="translate(41 1637)">
      <g id="Group_1846" data-name="Group 1846" clip-path="url(#clip-path)">
        <path id="Path_15758" data-name="Path 15758" d="M9.46,22a4.008,4.008,0,0,1-3.874-3H3.32a8.7,8.7,0,0,1-2.3-.116,1.039,1.039,0,0,1-.287-.1A1.384,1.384,0,0,1,0,17.5a.994.994,0,0,1,.07-.323,11.916,11.916,0,0,1,1.3-2.413,8.916,8.916,0,0,0,1.09-4.54A5.88,5.88,0,0,1,4.582,5.746a7.643,7.643,0,0,1,1.6-1.014A3.5,3.5,0,0,1,9.4,0,3.421,3.421,0,0,1,11.89.98a3.506,3.506,0,0,1,.847,3.75,7.638,7.638,0,0,1,1.6,1.013,5.866,5.866,0,0,1,2.124,4.438v.041A8.956,8.956,0,0,0,17.6,14.845a11.475,11.475,0,0,1,1.247,2.331,1.013,1.013,0,0,1,.07.348,1.392,1.392,0,0,1-.707,1.241,1.014,1.014,0,0,1-.313.114,8.875,8.875,0,0,1-2.386.112h-2.18A4.007,4.007,0,0,1,9.46,22m-1.732-3a2,2,0,0,0,3.465,0ZM2.339,17.019A7.015,7.015,0,0,0,3.233,17H6.385a.939.939,0,0,1,.15,0l5.881,0H15.6a7.966,7.966,0,0,0,.981.023,9.779,9.779,0,0,0-.672-1.11,11.008,11.008,0,0,1-1.45-5.718,3.866,3.866,0,0,0-1.4-2.9,5.684,5.684,0,0,0-7.205,0,3.865,3.865,0,0,0-1.4,2.922,10.909,10.909,0,0,1-1.4,5.616,11,11,0,0,0-.724,1.194M9.461,2H9.433A1.5,1.5,0,0,0,8.094,4.122a7.74,7.74,0,0,1,2.732,0,1.5,1.5,0,0,0-.325-1.7A1.484,1.484,0,0,0,9.461,2" fill="#6b6b6b"/>
      </g>
    </g>
    <g id="Ellipse_2" data-name="Ellipse 2" transform="translate(53 1641)" fill="#d30404" stroke="#fff" stroke-width="1.5">
      <circle cx="4.5" cy="4.5" r="4.5" stroke="none"/>
      <circle cx="4.5" cy="4.5" r="3.75" fill="none"/>
    </g>
  </g>
</svg>
