<svg id="add_in_group" data-name="add in group" xmlns="http://www.w3.org/2000/svg" width="20.855" height="15" viewBox="0 0 20.855 15">
  <g id="Group_3044" data-name="Group 3044">
    <path id="Path_17131" data-name="Path 17131" d="M12.728,12.494H9.406a8.489,8.489,0,0,0-2.19.139c-.025.005-.049.011-.073.019a3.773,3.773,0,0,0-2.518,2.573,8.346,8.346,0,0,0-.14,2.19.75.75,0,0,0,.747.7l.052,0a.75.75,0,0,0,.7-.8,6.861,6.861,0,0,1,.1-1.725A2.255,2.255,0,0,1,7.545,14.1a7.055,7.055,0,0,1,1.81-.106h3.373a.75.75,0,1,0,0-1.5" transform="translate(-0.118 -3.125)" fill="#3a3a3a"/>
    <path id="Path_17132" data-name="Path 17132" d="M23.736,14.249h-1.5v-1.5a.75.75,0,1,0-1.5,0v1.5h-1.5a.75.75,0,1,0,0,1.5h1.5v1.5a.75.75,0,1,0,1.5,0v-1.5h1.5a.75.75,0,0,0,0-1.5" transform="translate(-3.631 -3.005)" fill="#3a3a3a"/>
    <path id="Path_17133" data-name="Path 17133" d="M16.234,4.113A4.123,4.123,0,0,0,12.117,0h-.005a4.123,4.123,0,1,0,4.123,4.123Zm-1.5.01A2.623,2.623,0,1,1,12.112,1.5h0a2.621,2.621,0,0,1,2.619,2.614Z" transform="translate(-1.001)" fill="#3a3a3a"/>
    <path id="Path_17134" data-name="Path 17134" d="M3.725,12.705a.75.75,0,0,0-.912-.54A3.739,3.739,0,0,0,0,15.792v1.5a.75.75,0,1,0,1.5,0v-1.5a2.24,2.24,0,0,1,1.685-2.174.751.751,0,0,0,.54-.912" transform="translate(0 -3.041)" fill="#3a3a3a"/>
    <path id="Path_17135" data-name="Path 17135" d="M5.441,8.282A.75.75,0,1,0,6,6.891,2.706,2.706,0,0,1,4.511,5.4,2.693,2.693,0,0,1,6,1.895.75.75,0,1,0,5.441.5a4.193,4.193,0,0,0,0,7.777" transform="translate(-0.705 -0.113)" fill="#3a3a3a"/>
  </g>
</svg>
