<svg xmlns="http://www.w3.org/2000/svg" xmlns:xlink="http://www.w3.org/1999/xlink" width="141.152" height="94.623" viewBox="0 0 141.152 94.623">
  <defs>
    <clipPath id="clip-path">
      <rect id="Rectangle_5161" data-name="Rectangle 5161" width="129.142" height="82.622" fill="none"/>
    </clipPath>
  </defs>
  <g id="Group_2065" data-name="Group 2065" transform="translate(-117.159 -18.687)">
    <path id="Union_142" data-name="Union 142" d="M89.333,82.622a4.791,4.791,0,0,1-2.5-.7,4.784,4.784,0,0,1-2.5.7h-7a4.786,4.786,0,0,1-.821-.071,4.788,4.788,0,0,1-.822.071H68.1a4.792,4.792,0,0,1-2.613-.776,4.793,4.793,0,0,1-2.613.776h-9.4a4.794,4.794,0,0,1-3.8-1.874l-1.193.9a4.793,4.793,0,0,1-2.893.971h-9.8a4.794,4.794,0,0,1-3.265-1.286l-.416.315a4.793,4.793,0,0,1-2.893.971H18.827a4.8,4.8,0,0,1-3.966-2.1L13.142,77.99a4.793,4.793,0,0,1-.6-4.16l5.677-17.652a4.792,4.792,0,0,1,.812-1.512H16.956a4.793,4.793,0,0,1-2.3-.588,4.785,4.785,0,0,1-2.3.588H4.794A4.793,4.793,0,0,1,.23,48.407l1.626-5.062a4.787,4.787,0,0,1,2.1-2.646l2.124-6.605a4.794,4.794,0,0,1-.165-3.372l1.626-5.062A4.794,4.794,0,0,1,12.1,22.333h5.95a4.794,4.794,0,0,1,3.909,2.019l.363-.409a4.8,4.8,0,0,1,3.583-1.61h5.917a4.792,4.792,0,0,1,1.878.384,4.782,4.782,0,0,1,1.8-.351H48.122a4.785,4.785,0,0,1,1.975.427,4.782,4.782,0,0,1,2.042-.46H59.7a4.756,4.756,0,0,1,.825.072,4.783,4.783,0,0,1,.819-.072h6.213a4.77,4.77,0,0,1,1.661.3,4.783,4.783,0,0,1,1.66-.3h7.592a4.792,4.792,0,0,1,3.546,1.57q.3-.343.628-.673a17.9,17.9,0,0,1,5.069-3.622,17.27,17.27,0,0,1,2.659-1.229,17.667,17.667,0,0,1,3.536-.872c.289-.041.574-.077.816-.125a1.8,1.8,0,0,0,.586-.2,6.765,6.765,0,0,0,1.169-.988l.62-.606c.215-.211.437-.417.663-.618a14.285,14.285,0,0,1,1.449-1.118,12.259,12.259,0,0,1,3.307-1.528c.56-.18,1.1-.337,1.6-.548a5.825,5.825,0,0,0,.724-.364c.117-.068.23-.143.343-.219l.353-.246a7.061,7.061,0,0,0,1.258-1.11,2.628,2.628,0,0,0,.7-1.515,2.653,2.653,0,0,1-.384,1.73,6.517,6.517,0,0,1-1.124,1.42l-.32.307c-.114.1-.231.208-.353.305a6.5,6.5,0,0,1-.774.522,15.189,15.189,0,0,1-1.62.776c-.528.229-1.027.469-1.507.735a11.794,11.794,0,0,0-1.366.907A15.123,15.123,0,0,0,98.782,16.1c-.2.189-.4.383-.6.583s-.4.419-.613.624-.428.42-.662.63l-.017.014q.838.069,1.659.214.262-.3.544-.585c4.244-4.286,7.368-3.537,9.171-7.662.644,2.629-2.055,4.4-3.45,6.421s0,3.444,1.5,2.945c1.853-.617,3-5.952,7.144-10.232,2.835-2.927,7.251-2.677,7.251-2.677a7.955,7.955,0,0,0-4.136,3.185c-2.049,2.736.627,5.245,4.916,2.316A15.308,15.308,0,0,0,128.207,0s2.555,5.642-.779,10.594a29.324,29.324,0,0,1-10.481,9.339c-3.175,1.808-3.106,4.18-2.593,4.951s2.17.821,3.659-2.13,3.679-2.933,3.679-2.933-1.411.11-2.665,4.066c-.818,2.581-2.008,7.007-5.859,9.826q.1.85.113,1.716a7.553,7.553,0,0,1,1.425-1.237,10.937,10.937,0,0,0,1.257-1,10.163,10.163,0,0,0,1.073-1.182,8.618,8.618,0,0,0,.858-1.345,10.406,10.406,0,0,0,.614-1.524c.367-1.079.673-2.189,1-3.312a14.369,14.369,0,0,1,1.319-3.309A5.67,5.67,0,0,1,122,21.15a5.837,5.837,0,0,1,1.5-.916,6.428,6.428,0,0,0-1.322,1.1,5.5,5.5,0,0,0-.907,1.415,13.747,13.747,0,0,0-.88,3.283c-.2,1.137-.4,2.3-.683,3.448a11.756,11.756,0,0,1-.542,1.759,8.871,8.871,0,0,1-.892,1.661,9.886,9.886,0,0,1-2.68,2.605,5.772,5.772,0,0,0-2.318,2.978c-.085.244-.139.476-.225.789-.122.447-.264.887-.421,1.323a17.791,17.791,0,0,1-4.474,7.719,18.119,18.119,0,0,1-2.3,1.974h2.164a4.794,4.794,0,0,1,4.564,6.26l-2.439,7.593a4.793,4.793,0,0,1-4.564,3.327h-1.569l-1.077,3.349a4.794,4.794,0,0,1,.185,3.415L101.49,79.3a4.794,4.794,0,0,1-4.564,3.327Z" transform="translate(123.156 24.688)" fill="#fff"/>
    <path id="Union_142_-_Outline" data-name="Union 142 - Outline" d="M96.926,82.622A4.794,4.794,0,0,0,101.49,79.3l1.626-5.063a4.794,4.794,0,0,0-.185-3.415l1.077-3.349h1.569a4.793,4.793,0,0,0,4.564-3.327l2.439-7.593a4.794,4.794,0,0,0-4.564-6.26h-2.164a18.116,18.116,0,0,0,2.3-1.974,17.792,17.792,0,0,0,4.474-7.719c.157-.436.3-.876.421-1.323.086-.313.14-.544.225-.789a5.773,5.773,0,0,1,2.318-2.978,9.885,9.885,0,0,0,2.68-2.605,8.872,8.872,0,0,0,.892-1.66,11.761,11.761,0,0,0,.542-1.759c.28-1.152.479-2.311.683-3.448a13.747,13.747,0,0,1,.88-3.283,5.5,5.5,0,0,1,.907-1.415,6.428,6.428,0,0,1,1.322-1.1,5.836,5.836,0,0,0-1.5.916,5.671,5.671,0,0,0-1.166,1.366,14.368,14.368,0,0,0-1.319,3.309c-.329,1.123-.634,2.233-1,3.312a10.406,10.406,0,0,1-.614,1.524,8.616,8.616,0,0,1-.858,1.345,10.159,10.159,0,0,1-1.073,1.182,10.936,10.936,0,0,1-1.257,1,7.553,7.553,0,0,0-1.425,1.237q-.016-.866-.113-1.716c3.851-2.818,5.041-7.245,5.859-9.826,1.254-3.956,2.665-4.066,2.665-4.066s-2.19-.017-3.679,2.933-3.146,2.9-3.659,2.13-.582-3.143,2.593-4.951a29.324,29.324,0,0,0,10.481-9.339C130.761,5.642,128.207,0,128.207,0a15.308,15.308,0,0,1-6.721,11.873c-4.288,2.929-6.965.42-4.916-2.316a7.956,7.956,0,0,1,4.136-3.185s-4.417-.251-7.252,2.677c-4.145,4.28-5.29,9.615-7.144,10.232-1.5.5-2.891-.92-1.5-2.945s4.093-3.792,3.45-6.421c-1.8,4.124-4.927,3.375-9.171,7.662q-.282.285-.544.585-.82-.145-1.659-.214l.017-.014c.234-.21.453-.421.662-.63s.417-.428.613-.624.4-.394.6-.583a15.127,15.127,0,0,1,1.258-1.072,11.794,11.794,0,0,1,1.366-.907c.48-.266.979-.506,1.507-.735a15.19,15.19,0,0,0,1.62-.776,6.5,6.5,0,0,0,.774-.522c.122-.1.239-.2.353-.305l.32-.307a6.515,6.515,0,0,0,1.124-1.42,2.653,2.653,0,0,0,.384-1.73,2.628,2.628,0,0,1-.695,1.515,7.062,7.062,0,0,1-1.258,1.11l-.353.246c-.113.076-.226.151-.343.219a5.822,5.822,0,0,1-.724.364c-.5.211-1.041.368-1.6.548a12.26,12.26,0,0,0-3.307,1.528,14.288,14.288,0,0,0-1.449,1.118c-.226.2-.448.407-.663.618l-.62.606a6.764,6.764,0,0,1-1.169.988,1.8,1.8,0,0,1-.586.2c-.242.048-.527.084-.816.125a17.668,17.668,0,0,0-3.536.872,17.272,17.272,0,0,0-2.659,1.229,17.9,17.9,0,0,0-5.069,3.622q-.324.329-.628.673a4.792,4.792,0,0,0-3.546-1.57H70.876a4.783,4.783,0,0,0-1.66.3,4.77,4.77,0,0,0-1.661-.3H61.343a4.78,4.78,0,0,0-.819.072,4.754,4.754,0,0,0-.825-.072h-7.56a4.782,4.782,0,0,0-2.042.46,4.785,4.785,0,0,0-1.975-.427H35.5a4.783,4.783,0,0,0-1.8.351,4.792,4.792,0,0,0-1.878-.384H25.909a4.8,4.8,0,0,0-3.583,1.61l-.363.409a4.794,4.794,0,0,0-3.909-2.019H12.1a4.794,4.794,0,0,0-4.564,3.328L5.913,30.722a4.794,4.794,0,0,0,.165,3.372L3.955,40.7a4.787,4.787,0,0,0-2.1,2.646L.23,48.407a4.793,4.793,0,0,0,4.564,6.259h7.56a4.785,4.785,0,0,0,2.3-.588,4.793,4.793,0,0,0,2.3.588h2.079a4.792,4.792,0,0,0-.812,1.512L12.545,73.83a4.793,4.793,0,0,0,.6,4.16l1.718,2.531a4.8,4.8,0,0,0,3.966,2.1H29.214a4.793,4.793,0,0,0,2.893-.971l.416-.315a4.794,4.794,0,0,0,3.265,1.286h9.8a4.793,4.793,0,0,0,2.893-.971l1.193-.9a4.794,4.794,0,0,0,3.8,1.874h9.4a4.793,4.793,0,0,0,2.613-.776,4.792,4.792,0,0,0,2.613.776h7.593a4.785,4.785,0,0,0,.822-.071,4.784,4.784,0,0,0,.821.071h7a4.784,4.784,0,0,0,2.5-.7,4.791,4.791,0,0,0,2.5.7h7.593m0,6H89.333a10.77,10.77,0,0,1-2.5-.293,10.79,10.79,0,0,1-2.5.293h-7c-.14,0-.414-.016-.713-.04q-.461.04-.931.04H68.1a10.785,10.785,0,0,1-2.613-.321,10.782,10.782,0,0,1-2.613.321h-9.4a10.764,10.764,0,0,1-3.939-.752,10.832,10.832,0,0,1-3.949.752h-9.8a10.789,10.789,0,0,1-3.324-.523,10.334,10.334,0,0,1-3.25.523H18.827a10.785,10.785,0,0,1-8.93-4.73L8.178,81.36a10.726,10.726,0,0,1-1.344-9.368l3.643-11.326H4.794A10.793,10.793,0,0,1-5.483,46.572l1.626-5.062a10.781,10.781,0,0,1,2.64-4.328l1.043-3.244A10.79,10.79,0,0,1,.2,28.887l1.626-5.062A10.76,10.76,0,0,1,12.1,16.333h5.95a10.776,10.776,0,0,1,3.955.753,10.4,10.4,0,0,1,3.9-.753h5.917a10.774,10.774,0,0,1,1.934.174,10.768,10.768,0,0,1,1.74-.141H48.122a10.788,10.788,0,0,1,1.923.171,10.745,10.745,0,0,1,2.095-.2H59.7c.141,0,.416.017.717.041q.459-.04.927-.041h6.213a10.821,10.821,0,0,1,1.661.128,10.807,10.807,0,0,1,1.659-.128h7.592a10.757,10.757,0,0,1,2.6.319,23.734,23.734,0,0,1,4.062-2.461,20.452,20.452,0,0,1,3.2-1.456,23.486,23.486,0,0,1,4.315-1.106l1.116-1.137a20.384,20.384,0,0,1,2.078-1.608,18.1,18.1,0,0,1,4.949-2.307l.727,1.135a6,6,0,0,1,.31-1.386l-.035-.082a.145.145,0,0,1,.073-.022,6,6,0,0,1,9.005-2.854,16.537,16.537,0,0,1,9.57-3,6.121,6.121,0,0,1,1.712.245,4.586,4.586,0,0,0,.054-.634,6,6,0,0,1,4.745-5.845,6,6,0,0,1,6.721,3.392c.4.889,3.789,8.907-1.267,16.419a33.655,33.655,0,0,1-3.3,4.162,6,6,0,0,1-2.352,7.165,7.63,7.63,0,0,0-.464,1.836c-.264,1.476-.475,2.637-.756,3.792a17.757,17.757,0,0,1-.829,2.637,14.765,14.765,0,0,1-1.475,2.741,15.808,15.808,0,0,1-4.31,4.22c-.248.952-.438,1.544-.649,2.129a21.49,21.49,0,0,1-2.249,5.222,10.7,10.7,0,0,1,.712.876,10.828,10.828,0,0,1,1.555,9.659l-2.44,7.594a10.762,10.762,0,0,1-6.507,6.819,10.793,10.793,0,0,1-.518,3.272L107.2,81.13A10.761,10.761,0,0,1,96.926,88.622Z" transform="translate(123.156 24.688)" fill="#fff"/>
    <g id="Group_1608" data-name="Group 1608" transform="translate(123.156 24.688)">
      <g id="Group_1607" data-name="Group 1607" clip-path="url(#clip-path)">
        <path id="Path_749" data-name="Path 749" d="M369.374,19.933a29.324,29.324,0,0,0,10.481-9.339C383.189,5.642,380.634,0,380.634,0a15.308,15.308,0,0,1-6.721,11.873c-4.289,2.929-6.965.42-4.916-2.315a7.955,7.955,0,0,1,4.136-3.185s-4.417-.251-7.251,2.676c-4.145,4.28-5.291,9.615-7.144,10.232-1.5.5-2.891-.92-1.5-2.945s4.093-3.792,3.449-6.421c-1.8,4.124-4.927,3.376-9.171,7.662-6.349,6.411-5.065,18.921,5.3,18.748,11.25-.188,13.378-8.482,14.632-12.439s2.665-4.066,2.665-4.066-2.19-.017-3.678,2.933-3.146,2.9-3.659,2.13-.582-3.143,2.593-4.951" transform="translate(-252.427)" fill="#ffe428"/>
        <path id="Path_750" data-name="Path 750" d="M362.2,63.012c-.287.017-.584.029-.881.034-4.129.069-5.943-2.137-6.738-4-1.555-3.643-.405-8.736,2.676-11.848a16,16,0,0,1,2.414-2.013,3.4,3.4,0,0,0,.227,2.747,3.152,3.152,0,0,0,2.975,1.568,3.647,3.647,0,0,0,.93-.181c1.526-.508,2.363-2.084,3.522-4.266a28.678,28.678,0,0,1,3.852-5.909,3.545,3.545,0,0,0,.349,2.309,3.8,3.8,0,0,0,3.735,1.847,8.467,8.467,0,0,0,4.139-1.6,17.124,17.124,0,0,0,2.235-1.821,28.352,28.352,0,0,1-8.577,7,6.815,6.815,0,0,0-3.588,4.278,4.017,4.017,0,0,0,.42,3.1,2.745,2.745,0,0,0,2.489,1.2,3.2,3.2,0,0,0,.769-.145,14.4,14.4,0,0,1-2.117,3.636c-2.058,2.5-4.946,3.836-8.829,4.07" transform="translate(-256.949 -28.422)" fill="#ff0"/>
        <path id="Path_751" data-name="Path 751" d="M382.51,61.078c-4.227,2.056-5.9,7.06-6.051,9.713-.257,4.618-5.093,9.174-8.569,5.913-2.306-2.164-.549-6.944,3.59-8.587,5.058-2.009,4.7-5.793,11.03-7.038" transform="translate(-266.373 -44.347)" fill="#00923a"/>
        <path id="Path_752" data-name="Path 752" d="M121.995,43.2a5.671,5.671,0,0,0-1.166,1.367,14.356,14.356,0,0,0-1.319,3.309c-.329,1.123-.634,2.233-1,3.312a10.415,10.415,0,0,1-.614,1.524,8.642,8.642,0,0,1-.858,1.345,10.2,10.2,0,0,1-1.073,1.182,10.967,10.967,0,0,1-1.257,1,7.54,7.54,0,0,0-1.425,1.237A17.877,17.877,0,0,0,96.891,40l.017-.015c.234-.21.453-.42.662-.63s.417-.428.613-.624.4-.394.6-.583a15.086,15.086,0,0,1,1.258-1.073,11.854,11.854,0,0,1,1.366-.907c.48-.266.979-.506,1.507-.735a15.273,15.273,0,0,0,1.62-.776,6.522,6.522,0,0,0,.774-.522c.122-.1.239-.2.353-.3l.319-.308a6.515,6.515,0,0,0,1.124-1.419,2.654,2.654,0,0,0,.384-1.73,2.628,2.628,0,0,1-.695,1.515A7.05,7.05,0,0,1,105.534,33l-.353.246c-.113.077-.226.151-.343.219a5.849,5.849,0,0,1-.724.365c-.5.211-1.041.368-1.6.548a12.266,12.266,0,0,0-3.307,1.528,14.34,14.34,0,0,0-1.449,1.118c-.226.2-.448.407-.663.618l-.62.606a6.767,6.767,0,0,1-1.169.989,1.8,1.8,0,0,1-.586.2c-.242.047-.526.084-.816.125a17.657,17.657,0,0,0-3.536.872,17.271,17.271,0,0,0-2.66,1.229,17.906,17.906,0,0,0-5.069,3.622q-.324.33-.628.672a4.794,4.794,0,0,0-3.546-1.569H70.875a4.779,4.779,0,0,0-1.659.3,4.775,4.775,0,0,0-1.661-.3H61.343a4.8,4.8,0,0,0-.819.072,4.769,4.769,0,0,0-.825-.072h-7.56a4.778,4.778,0,0,0-2.042.46,4.788,4.788,0,0,0-1.975-.427H35.5a4.781,4.781,0,0,0-1.8.351,4.791,4.791,0,0,0-1.878-.384H25.909A4.794,4.794,0,0,0,22.325,46l-.363.409a4.793,4.793,0,0,0-3.909-2.019H12.1a4.793,4.793,0,0,0-4.564,3.328L5.913,52.778a4.793,4.793,0,0,0,.165,3.371L3.955,62.754a4.788,4.788,0,0,0-2.1,2.646L.229,70.462a4.794,4.794,0,0,0,4.564,6.26h7.56a4.785,4.785,0,0,0,2.3-.588,4.794,4.794,0,0,0,2.3.588h2.079a4.784,4.784,0,0,0-.812,1.512L12.545,95.885a4.794,4.794,0,0,0,.6,4.16l1.718,2.531a4.794,4.794,0,0,0,3.966,2.1H29.213a4.794,4.794,0,0,0,2.893-.971l.416-.315a4.793,4.793,0,0,0,3.265,1.286h9.8a4.794,4.794,0,0,0,2.893-.971l1.193-.9a4.794,4.794,0,0,0,3.8,1.874h9.4a4.793,4.793,0,0,0,2.613-.777,4.79,4.79,0,0,0,2.613.777h7.593a4.779,4.779,0,0,0,.822-.071,4.783,4.783,0,0,0,.821.071h7a4.784,4.784,0,0,0,2.5-.7,4.791,4.791,0,0,0,2.5.7h7.593a4.793,4.793,0,0,0,4.564-3.327l1.626-5.062a4.794,4.794,0,0,0-.184-3.415l1.077-3.349h1.569a4.793,4.793,0,0,0,4.564-3.328L112.58,78.6a4.794,4.794,0,0,0-4.564-6.26h-2.164a18.118,18.118,0,0,0,2.3-1.974,17.787,17.787,0,0,0,4.475-7.719c.157-.436.3-.876.421-1.323.086-.313.14-.544.225-.789a5.766,5.766,0,0,1,2.318-2.978,9.884,9.884,0,0,0,2.68-2.605,8.862,8.862,0,0,0,.892-1.661,11.781,11.781,0,0,0,.542-1.758c.28-1.152.479-2.311.683-3.448a13.749,13.749,0,0,1,.879-3.283,5.5,5.5,0,0,1,.907-1.415,6.428,6.428,0,0,1,1.322-1.1,5.843,5.843,0,0,0-1.5.915" transform="translate(0 -22.055)" fill="#00923a"/>
        <path id="Path_753" data-name="Path 753" d="M37.222,121.776h-7.56l1.626-5.062h1.249l2.363-7.4-5.821,6.969L27.8,109.318l-2.363,7.4h1.249l-1.626,5.062H17.5l1.626-5.062h1.249l4.058-12.623H23.184l1.626-5.062h5.95l1.634,7,6.222-7h5.917l-1.626,5.062H41.657L37.6,116.714h1.249Z" transform="translate(-12.706 -71.903)" fill="#fff"/>
        <path id="Path_754" data-name="Path 754" d="M111.47,121.864h-7.56l1.619-5.029h1.249l.147-1.282h-4.5l-.673,1.282H103l-1.619,5.029h-7.56l1.619-5.029h1.249l6.76-12.655H102l1.619-5.029h12.622l-1.619,5.029h-1.413l-1.37,12.655h1.249Zm-4-11.373.561-5.457-2.9,5.457Z" transform="translate(-68.119 -71.991)" fill="#fff"/>
        <path id="Path_755" data-name="Path 755" d="M171.218,121.776h-7.56l1.626-5.062h1.249l4.058-12.623h-1.249l1.626-5.062h7.56l-1.626,5.062h-1.249l-4.058,12.623h1.249Z" transform="translate(-118.828 -71.903)" fill="#fff"/>
        <path id="Path_756" data-name="Path 756" d="M220.066,104.092h-1.282L213.1,121.776h-5.128l-.93-10.847-1.849,5.785h1.282l-1.626,5.062h-7.593l1.626-5.062h1.282l4.058-12.623H202.94l1.626-5.062h6.213l.99,11.176,1.986-6.114h-1.282L214.1,99.03h7.593Z" transform="translate(-143.223 -71.903)" fill="#fff"/>
        <path id="Path_757" data-name="Path 757" d="M74.563,223.922H64.176l-1.718-2.531,5.677-17.652,3.344-2.531H81.866l1.718,2.531-1.619,5.029H76.9l.813-2.531H72.391l-4.065,12.656h5.325l.813-2.532h5.062l-1.619,5.029Z" transform="translate(-45.35 -146.093)" fill="#fff"/>
        <path id="Path_758" data-name="Path 758" d="M135.979,223.922h-9.8L124.5,221.39l5.677-17.651,3.311-2.531h9.8L145,203.739l-5.677,17.651Zm3.153-17.685H134.4l-4.065,12.655h4.733Z" transform="translate(-90.395 -146.093)" fill="#fff"/>
        <path id="Path_759" data-name="Path 759" d="M209.518,206.15h-1.249L203.4,221.3l-3.344,2.531h-9.4l-1.718-2.531,4.871-15.153h-1.249l1.626-5.062h7.56l-1.626,5.062h-1.249l-4.058,12.622h4.339l4.058-12.622h-1.249l1.626-5.062h7.56Z" transform="translate(-137.181 -146.006)" fill="#fff"/>
        <path id="Path_760" data-name="Path 760" d="M264.846,223.922h-7l1.619-5.029h1.019l1.223-3.813h-3.944l-1.223,3.813h1.282l-1.619,5.029h-7.593l1.619-5.029h1.282l4.065-12.655h-1.282l1.619-5.029H268.7l1.718,2.531-2.432,7.56-1.652,1.249.839,1.282-1.626,5.062h.92Zm-.3-17.685H260.6l-1.223,3.813h3.944Z" transform="translate(-180.509 -146.093)" fill="#fff"/>
        <path id="Path_761" data-name="Path 761" d="M342.37,208.681h-3.78l.813-2.531h-1.282l-4.058,12.622h1.282l-1.626,5.062h-7.593l1.626-5.062h1.282l4.058-12.622h-1.282L331,208.681h-3.813l2.439-7.593h15.186Z" transform="translate(-236.792 -146.005)" fill="#fff"/>
        <path id="Path_762" data-name="Path 762" d="M309.616,77.528A14.536,14.536,0,1,0,324.274,91.94a14.536,14.536,0,0,0-14.658-14.412" transform="translate(-214.34 -56.291)" fill="#ffe428"/>
        <path id="Path_763" data-name="Path 763" d="M317.864,77.528a14.472,14.472,0,0,0-9.055,3.267,8.933,8.933,0,0,0-1.364,2.054c-2.594,5.423.722,12.434,7.406,15.661s14.205,1.447,16.8-3.975a9.006,9.006,0,0,0,.852-3.174,14.534,14.534,0,0,0-14.638-13.833" transform="translate(-222.588 -56.291)" fill="#ff0"/>
        <path id="Path_764" data-name="Path 764" d="M342.135,101.017a2.365,2.365,0,1,0,2.385,2.345,2.365,2.365,0,0,0-2.385-2.345" transform="translate(-246.714 -73.346)" fill="#00923a"/>
        <path id="Path_765" data-name="Path 765" d="M303.884,107.139c.5-1.2.423-2.386-.179-2.638s-1.5.521-2,1.726-.423,2.386.179,2.638,1.5-.521,2-1.726" transform="translate(-218.818 -75.841)" fill="#00923a"/>
        <path id="Path_766" data-name="Path 766" d="M385.114,107.139c-.5-1.2-.423-2.386.179-2.638s1.5.521,2,1.726.423,2.386-.179,2.638-1.5-.521-2-1.726" transform="translate(-279.382 -75.841)" fill="#00923a"/>
        <path id="Path_767" data-name="Path 767" d="M362.689,87.467c-1.169-.583-1.88-1.529-1.589-2.113s1.475-.586,2.644,0,1.88,1.529,1.589,2.114-1.475.586-2.644,0" transform="translate(-262.139 -61.654)" fill="#00923a"/>
        <path id="Path_768" data-name="Path 768" d="M322.592,87.467c1.169-.583,1.88-1.529,1.589-2.113s-1.475-.586-2.644,0-1.88,1.529-1.589,2.114,1.475.586,2.644,0" transform="translate(-232.26 -61.654)" fill="#00923a"/>
        <path id="Path_769" data-name="Path 769" d="M341.864,147.631a2.365,2.365,0,1,0-2.385-2.345,2.365,2.365,0,0,0,2.385,2.345" transform="translate(-246.488 -103.757)" fill="#00923a"/>
        <path id="Path_770" data-name="Path 770" d="M385.114,142.226c-.5,1.2-.423,2.386.179,2.638s1.5-.521,2-1.726.423-2.386-.179-2.638-1.5.521-2,1.726" transform="translate(-279.382 -101.979)" fill="#00923a"/>
        <path id="Path_771" data-name="Path 771" d="M303.884,142.226c.5,1.2.423,2.386-.179,2.638s-1.5-.521-2-1.726-.423-2.386.179-2.638,1.5.521,2,1.726" transform="translate(-218.818 -101.979)" fill="#00923a"/>
        <path id="Path_772" data-name="Path 772" d="M362.377,165.795c-1.169.583-1.88,1.529-1.589,2.113s1.475.586,2.644,0,1.88-1.529,1.589-2.114-1.475-.586-2.644,0" transform="translate(-261.913 -120.063)" fill="#00923a"/>
        <path id="Path_773" data-name="Path 773" d="M319.41,121.959a2.4,2.4,0,1,0,2,2.348,2.2,2.2,0,0,0-2-2.348" transform="translate(-230.491 -88.552)" fill="#00923a"/>
        <path id="Path_774" data-name="Path 774" d="M322.281,165.795c1.169.583,1.88,1.529,1.589,2.113s-1.475.586-2.644,0-1.881-1.529-1.589-2.114,1.475-.586,2.644,0" transform="translate(-232.034 -120.063)" fill="#00923a"/>
        <path id="Path_775" data-name="Path 775" d="M366.612,121.959a2.4,2.4,0,1,1-2,2.348,2.2,2.2,0,0,1,2-2.348" transform="translate(-264.734 -88.552)" fill="#00923a"/>
        <path id="Path_776" data-name="Path 776" d="M62.389,146.606l-1.967,2.353-.433-2.353Z" transform="translate(-43.557 -106.448)" fill="#a3d2aa"/>
        <path id="Path_777" data-name="Path 777" d="M72.95,152.079l-1.1,3.419H66.02l1.1-3.419h1.252l.181-.57,1.567-4.9h3.347l-1.416,4.4-.345,1.074Z" transform="translate(-47.935 -106.448)" fill="#a3d2aa"/>
        <path id="Path_778" data-name="Path 778" d="M28.543,152.079l-1.1,3.419H21.61l1.1-3.419h1.249l.184-.57,1.578-4.9h3.325l-1.405,4.4-.342,1.071Z" transform="translate(-15.69 -106.448)" fill="#a3d2aa"/>
        <path id="Path_779" data-name="Path 779" d="M114.953,152.112l-1.09,3.386h-5.832l1.087-3.386H110.5l.082-.729.148-1.282.1-.915h-5.922l-.23.441-.674,1.282-.633,1.2h1.482l-1.09,3.386H97.939l1.087-3.386h1.145l.233-.433,2.709-5.073h11.4l-.5,4.6-.1.909Z" transform="translate(-71.112 -106.448)" fill="#a3d2aa"/>
        <path id="Path_780" data-name="Path 780" d="M174.7,152.079l-1.1,3.419H167.77l1.1-3.419h1.249l.184-.57,1.578-4.9h3.334l-1.413,4.4-.345,1.074Z" transform="translate(-121.814 -106.448)" fill="#a3d2aa"/>
        <path id="Path_781" data-name="Path 781" d="M243.745,146.606l-2.86,8.892h-3.775l-.762-8.892Z" transform="translate(-171.608 -106.448)" fill="#a3d2aa"/>
        <path id="Path_782" data-name="Path 782" d="M208.335,152.079l-1.1,3.419H201.37l1.1-3.419h1.282l.184-.57,1.578-4.9H208.8l-1.405,4.4-.345,1.071Z" transform="translate(-146.21 -106.448)" fill="#a3d2aa"/>
        <path id="Path_783" data-name="Path 783" d="M80.8,249.419,79.6,253.128l-2.917,2.208H67.009L65.76,253.5l2.539-7.892h3.336l-1.693,5.27-.345,1.074h7.051l.184-.57.63-1.961Z" transform="translate(-47.747 -178.33)" fill="#a3d2aa"/>
        <path id="Path_784" data-name="Path 784" d="M143.435,245.607l-2.419,7.522-2.917,2.208h-9.078L127.8,253.5l2.539-7.894h3.3l-1.7,5.27-.342,1.074h6.459l.184-.57,1.854-5.774Z" transform="translate(-92.792 -178.33)" fill="#a3d2aa"/>
        <path id="Path_785" data-name="Path 785" d="M207.513,245.607l-2.419,7.522-2.917,2.208h-8.689l-1.249-1.838,2.537-7.892h3.336l-1.685,5.237-.345,1.074h6.065l.184-.57,1.846-5.741Z" transform="translate(-139.581 -178.33)" fill="#a3d2aa"/>
        <path id="Path_786" data-name="Path 786" d="M267.409,251.951h.92l-1.09,3.386h-5.273l1.087-3.386h1.022l.184-.57,1.222-3.813.345-1.074h-5.67l-.184.57-1.224,3.816-.342,1.071h1.279l-1.09,3.386h-5.865l1.087-3.386H255.1l.181-.57,1.857-5.774h11.74l.381.583-1.507,4.687Z" transform="translate(-183.501 -178.33)" fill="#a3d2aa"/>
        <path id="Path_787" data-name="Path 787" d="M337.205,251.918l-1.1,3.419H330.24l1.1-3.419h1.282l.184-.57,1.846-5.741h3.3l-1.682,5.237-.345,1.074Z" transform="translate(-239.78 -178.33)" fill="#a3d2aa"/>
      </g>
    </g>
  </g>
</svg>
