<svg xmlns="http://www.w3.org/2000/svg" width="28.253" height="31.001" viewBox="0 0 28.253 31.001">
  <path id="Calendar" d="M21.188,31a11.619,11.619,0,0,1-1.232-.065H8.3A11.833,11.833,0,0,1,3.334,30.4a1.463,1.463,0,0,1-.174-.072A5.464,5.464,0,0,1,.672,27.84,1.463,1.463,0,0,1,.6,27.666,11.864,11.864,0,0,1,.065,22.7V11.044A11.864,11.864,0,0,1,.6,6.08a1.463,1.463,0,0,1,.072-.174A5.464,5.464,0,0,1,3.16,3.418a1.463,1.463,0,0,1,.174-.072,11,11,0,0,1,3.761-.6V1.406a1.406,1.406,0,1,1,2.812,0v1.4h8.437v-1.4a1.406,1.406,0,1,1,2.812,0v1.34a11.858,11.858,0,0,1,3.763.6,1.463,1.463,0,0,1,.174.072A5.462,5.462,0,0,1,27.58,5.9a1.619,1.619,0,0,1,.073.177,11.858,11.858,0,0,1,.534,4.964V22.7a11.858,11.858,0,0,1-.534,4.964,1.619,1.619,0,0,1-.073.177,5.462,5.462,0,0,1-2.486,2.485,1.463,1.463,0,0,1-.174.072,11.876,11.876,0,0,1-3.732.6M8.222,28.123h11.81a1.206,1.206,0,0,1,.159.01,9.023,9.023,0,0,0,3.746-.371,2.634,2.634,0,0,0,1.079-1.08,9.051,9.051,0,0,0,.37-3.743,1.242,1.242,0,0,1-.01-.16V14.061H2.877v8.717a1.242,1.242,0,0,1-.01.16,9.042,9.042,0,0,0,.371,3.745,2.622,2.622,0,0,0,1.079,1.079,9.068,9.068,0,0,0,3.745.371,1.242,1.242,0,0,1,.16-.01M2.877,11.249h22.5v-.281a1.206,1.206,0,0,1,.01-.159,9.055,9.055,0,0,0-.37-3.745,2.634,2.634,0,0,0-1.079-1.08,9.05,9.05,0,0,0-2.746-.427h-.034V7.031a1.406,1.406,0,1,1-2.812,0V5.623H9.908V7.031a1.406,1.406,0,0,1-2.812,0V5.557a10.332,10.332,0,0,0-2.779.427A2.622,2.622,0,0,0,3.238,7.063a9.046,9.046,0,0,0-.371,3.746,1.205,1.205,0,0,1,.01.159ZM12.72,25.31a1.4,1.4,0,0,1-.994-.412L8.914,22.086A1.406,1.406,0,1,1,10.9,20.1l1.818,1.818,5.333-5.333a1.406,1.406,0,0,1,1.988,1.988L13.714,24.9a1.4,1.4,0,0,1-.994.412" transform="translate(0)" fill="#fff" opacity="0.5"/>
</svg>
