<svg xmlns="http://www.w3.org/2000/svg" width="24.65" height="24.567" viewBox="0 0 24.65 24.567">
    <path id="Path_2477" data-name="Path 2477"
        d="M1758.65,4882.283v3.356c0,2.425,0,3.638-.476,4.567a4.277,4.277,0,0,1-1.884,1.884c-.931.477-2.144.477-4.568.477h-7.794c-2.425,0-3.637,0-4.568-.477a4.272,4.272,0,0,1-1.884-1.884c-.476-.93-.476-2.143-.476-4.567v-7.629c0-2.425,0-3.638.476-4.568a4.287,4.287,0,0,1,1.884-1.884c.931-.477,2.143-.477,4.568-.477h4.438m8.036,5.413V4870m-3.247,3.248h6.495m-7.495,8.577a4.33,4.33,0,1,1-4.331-4.33A4.329,4.329,0,0,1,1752.156,4881.825Z"
        transform="translate(-1736 -4869)" fill="none" stroke="#6b6b6b" stroke-linecap="round"
        stroke-linejoin="round" stroke-width="2" />
</svg>
