<svg xmlns="http://www.w3.org/2000/svg" width="18" height="20" viewBox="0 0 18 20">
  <path id="Path_15928" data-name="Path 15928" d="M17.956,14.76l0-6.544a.732.732,0,0,0,0-.077.716.716,0,0,0,0-.078V7.123a7.689,7.689,0,0,0-.335-3.241.806.806,0,0,0-.039-.1,3.42,3.42,0,0,0-1.545-1.563.965.965,0,0,0-.1-.04A7.771,7.771,0,0,0,13.409,1.8V.782a.773.773,0,1,0-1.546,0V1.838l-5.728,0V.782a.773.773,0,1,0-1.546,0V1.8a7.583,7.583,0,0,0-2.526.384.884.884,0,0,0-.1.04A3.416,3.416,0,0,0,.423,3.785a.807.807,0,0,0-.039.1,7.522,7.522,0,0,0-.34,3.154V8.173l0,6.5a7.706,7.706,0,0,0,.335,3.242.739.739,0,0,0,.039.1,3.407,3.407,0,0,0,1.545,1.563.625.625,0,0,0,.1.04,7.416,7.416,0,0,0,3.159.343l7.507,0a7.461,7.461,0,0,0,3.2-.339.665.665,0,0,0,.1-.04,3.411,3.411,0,0,0,1.545-1.563.738.738,0,0,0,.039-.1,7.522,7.522,0,0,0,.34-3.154M1.833,4.429A1.836,1.836,0,0,1,2.6,3.648,6.088,6.088,0,0,1,4.59,3.362v1.1a.773.773,0,1,0,1.546,0V3.4l5.728,0V4.461a.773.773,0,1,0,1.546,0v-1.1a6.252,6.252,0,0,1,1.987.288,1.836,1.836,0,0,1,.771.781,6.314,6.314,0,0,1,.244,2.606v.322H1.585v-.41a6.113,6.113,0,0,1,.248-2.518M16.166,17.367a1.846,1.846,0,0,1-.771.781,6.1,6.1,0,0,1-2.578.246H5.181a.7.7,0,0,0-.087,0A5.9,5.9,0,0,1,2.6,18.147a1.846,1.846,0,0,1-.771-.781,6.314,6.314,0,0,1-.244-2.606l0-5.84H16.411l0,5.928a6.113,6.113,0,0,1-.248,2.518" transform="translate(0)" fill="#9a9a9a"/>
</svg>
