<svg xmlns="http://www.w3.org/2000/svg" width="15.5" height="15.5" viewBox="0 0 15.5 15.5">
  <path id="Path_17130" data-name="Path 17130" d="M7.728,15.5a7.551,7.551,0,0,1-2.9-.575,1.729,1.729,0,0,0-.22-.082c.009.016-.041.022-.089.031l-2.792.471a1.689,1.689,0,0,1-.823.016.72.72,0,0,1-.122-.038,1.125,1.125,0,0,1-.61-.608.725.725,0,0,1-.04-.13,1.827,1.827,0,0,1,.038-.911L.618,11a.948.948,0,0,0,.02-.17c-.006-.008-.031-.076-.059-.14A7.608,7.608,0,0,1,0,7.748,7.75,7.75,0,1,1,7.752,15.5ZM4.691,13.357a1.337,1.337,0,0,1,.3.036,2.984,2.984,0,0,1,.435.155,6.046,6.046,0,0,0,2.3.452H7.75A6.25,6.25,0,1,0,1.5,7.75,6.085,6.085,0,0,0,1.957,10.1a2.763,2.763,0,0,1,.136.379,1.3,1.3,0,0,1,.044.408,2.389,2.389,0,0,1-.043.381l-.435,2.578L4.248,13.4a2.188,2.188,0,0,1,.39-.042h.053m5.393-4.078H4.639a.75.75,0,0,1,0-1.5h5.445a.75.75,0,0,1,0,1.5M7.75,6.557H4.639a.75.75,0,1,1,0-1.5H7.75a.75.75,0,0,1,0,1.5" transform="translate(0)" fill="#3a3a3a"/>
</svg>
