<svg xmlns="http://www.w3.org/2000/svg" width="19" height="18" viewBox="0 0 19 18">
  <path id="Path_16480" data-name="Path 16480" d="M9.507,18a1.325,1.325,0,0,1-.479-.09,1.837,1.837,0,0,1-.77-.659l-1.4-1.712a3.279,3.279,0,0,0-.5-.551,1.306,1.306,0,0,0-.432-.179,4.359,4.359,0,0,0-.7-.025,8.536,8.536,0,0,1-2.777-.224,3.585,3.585,0,0,1-2.1-1.865A.7.7,0,0,1,.3,12.582,6.734,6.734,0,0,1,.048,9.94l0-4.864a6.786,6.786,0,0,1,.367-3.1.819.819,0,0,1,.052-.115A3.482,3.482,0,0,1,2.11.359,11.158,11.158,0,0,1,5.391,0h8.14A10.766,10.766,0,0,1,16.8.326a.793.793,0,0,1,.091.033,3.476,3.476,0,0,1,1.645,1.5.934.934,0,0,1,.052.114,6.759,6.759,0,0,1,.366,3.1v4.947a6.591,6.591,0,0,1-.253,2.557.958.958,0,0,1-.044.114,3.556,3.556,0,0,1-2.016,1.84,8.592,8.592,0,0,1-2.89.246,4.169,4.169,0,0,0-.737.039,1.346,1.346,0,0,0-.42.208,3.242,3.242,0,0,0-.418.471l-1.431,1.749a1.863,1.863,0,0,1-.8.674A1.18,1.18,0,0,1,9.507,18m-4.1-4.856a5.618,5.618,0,0,1,.805.057,2.981,2.981,0,0,1,1.154.508,4.757,4.757,0,0,1,.773.828L9.5,16.189l1.385-1.69a4.522,4.522,0,0,1,.692-.749,2.95,2.95,0,0,1,1.14-.538,5.8,5.8,0,0,1,1.139-.064,7.037,7.037,0,0,0,2.311-.178,1.909,1.909,0,0,0,.988-.922,5.143,5.143,0,0,0,.172-1.942l0-5.08a.892.892,0,0,1,.006-.1A5.113,5.113,0,0,0,17.079,2.6a1.839,1.839,0,0,0-.8-.724,9.63,9.63,0,0,0-2.67-.24H5.469a9.777,9.777,0,0,0-2.8.255A1.829,1.829,0,0,0,1.92,2.6a5.156,5.156,0,0,0-.25,2.325c0,.034,0,.067,0,.1v5a5.37,5.37,0,0,0,.169,2.025A1.932,1.932,0,0,0,2.913,13a6.99,6.99,0,0,0,2.2.156c.1-.006.2-.008.3-.008" transform="translate(0 0)" fill="#6b6b6b"/>
</svg>
