<svg xmlns="http://www.w3.org/2000/svg" width="21" height="18" viewBox="0 0 21 18">
  <path id="Path_16479" data-name="Path 16479" d="M10.468,18a1.213,1.213,0,0,1-.357-.053,1.951,1.951,0,0,1-.716-.462,87.633,87.633,0,0,1-7.951-7.337l-.172-.211A6.108,6.108,0,0,1,2.4,1.354a6.309,6.309,0,0,1,8.09.235,6.339,6.339,0,0,1,8.1-.226c.067.049.148.114.228.181a6.063,6.063,0,0,1,.75,8.565,88.84,88.84,0,0,1-8.055,7.439,1.686,1.686,0,0,1-.572.371,1.578,1.578,0,0,1-.475.08M6.3,1.638a4.6,4.6,0,0,0-2.881,1,4.479,4.479,0,0,0-.843,6.294l.1.121a87.357,87.357,0,0,0,7.823,7.213,88.411,88.411,0,0,0,7.85-7.253A4.43,4.43,0,0,0,17.76,2.8c-.059-.05-.117-.1-.178-.142a4.673,4.673,0,0,0-6.462.633.822.822,0,0,1-.631.295h0a.826.826,0,0,1-.632-.3A4.624,4.624,0,0,0,6.3,1.638" transform="translate(0 0)" fill="#6b6b6b"/>
</svg>
