<svg xmlns="http://www.w3.org/2000/svg" width="13" height="13" viewBox="0 0 13 13">
  <path id="Path_17137" data-name="Path 17137" d="M12.475,3.97a6.495,6.495,0,1,0-3.437,8.51A6.5,6.5,0,0,0,12.475,3.97Zm-11.308,1c-.145.52-.361.9-.505.867s-.145-.491,0-1,.361-.9.505-.867S1.311,4.461,1.167,4.967ZM2.481,6.484a.931.931,0,0,1,1.127.636A.929.929,0,0,1,3.29,8.363a.932.932,0,0,1-1.127-.636.912.912,0,0,1,.318-1.243m1.444,4.884c-.159.2-.636.115-1.069-.2s-.65-.751-.491-.968.635-.116,1.069.2.65.766.491.968m.217-7.687a.9.9,0,0,1-1.256-.116.892.892,0,0,1,.39-1.2.9.9,0,0,1,1.257.116.886.886,0,0,1-.39,1.2M5.153.907c-.029-.217.39-.433.924-.491s.982.073,1,.274c.029.217-.39.434-.924.491s-.982-.058-1-.274m.823,4.1A.981.981,0,1,1,5.456,6.3a1,1,0,0,1,.52-1.286M5.4,9.822a.967.967,0,0,1,.953-.953.962.962,0,0,1,1.127.737.967.967,0,0,1-.953.953A.95.95,0,0,1,5.4,9.822m1.747,2.688c-.534.058-.968.029-.982-.072s.4-.217.939-.274.968-.029.982.072-.419.217-.939.274m.982-9.073a.9.9,0,0,1-.52-1.127.9.9,0,0,1,1.213-.26.9.9,0,0,1,.52,1.127.9.9,0,0,1-1.213.261m2.08,6.892c-.39.361-.881.491-1.069.274S9.1,9.923,9.5,9.547c.39-.361.881-.491,1.069-.274s.043.694-.361,1.055M10.8,7.105a.882.882,0,0,1-1.1.55A.876.876,0,0,1,9.384,6.47a.882.882,0,0,1,1.1-.549A.875.875,0,0,1,10.8,7.105m.91-2.124c-.246.1-.607-.217-.824-.708s-.187-.983.058-1.083.606.216.823.707.173.983-.058,1.084m.549,3.5c-.1-.014-.1-.462-.014-.983s.246-.939.346-.925.1.462.014.983-.246.939-.346.925" fill="#ffc531"/>
</svg>
