<svg xmlns="http://www.w3.org/2000/svg" width="44.498" height="20" viewBox="0 0 44.498 20">
  <g id="_2players" data-name="2players" transform="translate(-165.251 -179)">
    <rect id="Rectangle_5997" data-name="Rectangle 5997" width="1" height="20" transform="translate(187 179)" fill="#00923a"/>
    <g id="Group_3051" data-name="Group 3051" transform="translate(100.645 -311.895)">
      <g id="Singles" transform="translate(64.606 490.895)">
        <g id="Group_3050" data-name="Group 3050" transform="translate(0 0)">
          <path id="Path_17138" data-name="Path 17138" d="M12.994,21.536H4.254a3.007,3.007,0,0,1-3-3A6.288,6.288,0,0,1,7.532,12.25H9.717A6.288,6.288,0,0,1,16,18.532,3.007,3.007,0,0,1,12.994,21.536ZM7.532,13.889a4.647,4.647,0,0,0-4.643,4.643A1.368,1.368,0,0,0,4.254,19.9h8.74a1.368,1.368,0,0,0,1.366-1.366,4.647,4.647,0,0,0-4.643-4.643Z" transform="translate(-1.25 -1.536)" fill="#00923a"/>
          <path id="Path_17139" data-name="Path 17139" d="M8.439,12.629a5.189,5.189,0,1,1,5.189-5.189,5.189,5.189,0,0,1-5.189,5.189Zm0-8.74A3.551,3.551,0,1,0,11.99,7.439,3.551,3.551,0,0,0,8.439,3.889Z" transform="translate(-1.065 -2.25)" fill="#00923a"/>
        </g>
      </g>
    </g>
    <g id="Group_3053" data-name="Group 3053" transform="translate(130.394 -311.895)">
      <g id="Singles-2" data-name="Singles" transform="translate(64.606 490.895)">
        <g id="Group_3052" data-name="Group 3052" transform="translate(0 0)">
          <path id="Path_17140" data-name="Path 17140" d="M12.994,21.536H4.254a3.007,3.007,0,0,1-3-3A6.288,6.288,0,0,1,7.532,12.25H9.717A6.288,6.288,0,0,1,16,18.532,3.007,3.007,0,0,1,12.994,21.536ZM7.532,13.889a4.647,4.647,0,0,0-4.643,4.643A1.368,1.368,0,0,0,4.254,19.9h8.74a1.368,1.368,0,0,0,1.366-1.366,4.647,4.647,0,0,0-4.643-4.643Z" transform="translate(-1.25 -1.536)" fill="#00923a"/>
          <path id="Path_17141" data-name="Path 17141" d="M8.439,12.629a5.189,5.189,0,1,1,5.189-5.189,5.189,5.189,0,0,1-5.189,5.189Zm0-8.74A3.551,3.551,0,1,0,11.99,7.439,3.551,3.551,0,0,0,8.439,3.889Z" transform="translate(-1.065 -2.25)" fill="#00923a"/>
        </g>
      </g>
    </g>
  </g>
</svg>
