<svg xmlns="http://www.w3.org/2000/svg" xmlns:xlink="http://www.w3.org/1999/xlink" width="18" height="18" viewBox="0 0 18 18">
  <defs>
    <clipPath id="clip-path">
      <rect id="Rectangle_5876" data-name="Rectangle 5876" width="18" height="18" fill="none"/>
    </clipPath>
  </defs>
  <g id="Group_2935" data-name="Group 2935" transform="translate(0 0)">
    <g id="Group_2906" data-name="Group 2906" transform="translate(0 0)" clip-path="url(#clip-path)">
      <path id="Path_16574" data-name="Path 16574" d="M8.453,18a1.157,1.157,0,0,1-.923-.46,2.264,2.264,0,0,1-.269-1.447V12.871A9.529,9.529,0,0,0,1.284,16.5a.7.7,0,0,1-.805.236A.782.782,0,0,1,0,16v-.6A10.09,10.09,0,0,1,7.261,5.469V1.908A2.271,2.271,0,0,1,7.521.474,1.187,1.187,0,0,1,8.459,0c.432.013.72.277,1.2.718l7.691,7.1a1.7,1.7,0,0,1,.592.783,1.329,1.329,0,0,1-.011.839,1.728,1.728,0,0,1-.584.754L9.658,17.28c-.477.443-.766.708-1.188.721Zm-.466-6.782a.7.7,0,0,1,.5.21.811.811,0,0,1,.23.571v4.094L16.4,9,8.713,1.909V6.1a.767.767,0,0,1-.6.77,8.371,8.371,0,0,0-6.553,7.121A10.718,10.718,0,0,1,7.938,11.22a.426.426,0,0,1,.05,0" transform="translate(0 0)" fill="#6b6b6b"/>
    </g>
  </g>
</svg>
