<svg xmlns="http://www.w3.org/2000/svg" width="26.087" height="23.66" viewBox="0 0 26.087 23.66">
  <g id="shake" transform="translate(-1.25 -2.25)">
    <path id="Path_16150" data-name="Path 16150" d="M1.568,4.469a.91.91,0,0,1,1.283.1L5.278,7.4a.91.91,0,0,1,0,1.184L3.359,10.822l1.919,2.239a.91.91,0,0,1,0,1.184L3.359,16.484l1.919,2.239a.91.91,0,0,1,0,1.184L2.851,22.739a.91.91,0,1,1-1.382-1.184l1.919-2.239L1.469,17.077a.91.91,0,0,1,0-1.184l1.919-2.239L1.469,11.415a.91.91,0,0,1,0-1.184L3.388,7.991,1.469,5.752a.91.91,0,0,1,.1-1.283Z" transform="translate(0 0.427)" fill="#00923a" fill-rule="evenodd"/>
    <path id="Path_16151" data-name="Path 16151" d="M23.179,4.469a.91.91,0,0,0-1.283.1L19.469,7.4a.91.91,0,0,0,0,1.184l1.919,2.239-1.919,2.239a.91.91,0,0,0,0,1.184l1.919,2.239-1.919,2.239a.91.91,0,0,0,0,1.184L21.9,22.739a.91.91,0,1,0,1.382-1.184l-1.919-2.239,1.919-2.239a.91.91,0,0,0,0-1.184l-1.919-2.239,1.919-2.239a.91.91,0,0,0,0-1.184L21.359,7.991l1.919-2.239a.91.91,0,0,0-.1-1.283Z" transform="translate(3.84 0.427)" fill="#00923a" fill-rule="evenodd"/>
    <path id="Path_16152" data-name="Path 16152" d="M6.25,3.16a.91.91,0,0,1,.91-.91H19.293a.91.91,0,0,1,.91.91V25a.91.91,0,0,1-.91.91H7.16A.91.91,0,0,1,6.25,25Zm1.82.91V24.09H18.383V4.07Z" transform="translate(1.067)" fill="#00923a" fill-rule="evenodd"/>
    <path id="Path_16153" data-name="Path 16153" d="M10.25,17.66a.91.91,0,0,1,.91-.91h2.427a.91.91,0,0,1,0,1.82H11.16A.91.91,0,0,1,10.25,17.66Z" transform="translate(1.92 3.093)" fill="#00923a" fill-rule="evenodd"/>
  </g>
</svg>
