<svg xmlns="http://www.w3.org/2000/svg" width="22" height="21.979" viewBox="0 0 22 21.979">
    <path id="Let_s_Dink_" data-name="Let’s Dink!"
        d="M9711.778,15962.686a1,1,0,0,1-.04-1.35l-2.784-2.784a6.059,6.059,0,0,1-7.5-.85l-5.46-5.46a3.382,3.382,0,0,1,0-4.779l5.364-5.368a3.385,3.385,0,0,1,1.1-.733,3.346,3.346,0,0,1,3.081.028,1,1,0,1,1-.937,1.767,1.34,1.34,0,0,0-1.258,0,.621.621,0,0,1-.1.048,1.331,1.331,0,0,0-.473.309l-5.364,5.364a1.383,1.383,0,0,0,0,1.951l5.465,5.46a4.032,4.032,0,0,0,5.324.349,1.043,1.043,0,0,1,.107-.16l2.2-2.2c.036-.032.08-.049.116-.076a4.016,4.016,0,0,0,.757-2.32,1,1,0,0,1,1-.993h.009a1,1,0,0,1,.993,1.01,6.044,6.044,0,0,1-.829,3.009l2.816,2.813a.989.989,0,0,1,1.35.04,1,1,0,0,1,0,1.414l-3.518,3.517a.984.984,0,0,1-.705.293A1,1,0,0,1,9711.778,15962.686Zm-1.3-5.436,2.66,2.66.793-.794-2.66-2.66Zm-4.968-10.8a3.79,3.79,0,1,1,3.79,3.79A3.792,3.792,0,0,1,9705.513,15946.449Zm2,0a1.791,1.791,0,1,0,1.791-1.791A1.792,1.792,0,0,0,9707.512,15946.449Z"
        transform="translate(-9695.002 -15941)" fill="#9a9a9a" />
</svg>
